<?xml version="1.0" standalone="no"?>
<!DOCTYPE svg PUBLIC "-//W3C//DTD SVG 20010904//EN"
 "http://www.w3.org/TR/2001/REC-SVG-20010904/DTD/svg10.dtd">
<svg version="1.0" xmlns="http://www.w3.org/2000/svg"
 width="500.000000pt" height="500.000000pt" viewBox="0 0 500.000000 500.000000"
 preserveAspectRatio="xMidYMid meet">

<g transform="translate(0.000000,500.000000) scale(0.100000,-0.100000)"
fill="#000000" stroke="none">
<path d="M1698 3469 c-106 -12 -200 -98 -228 -209 -7 -28 -10 -111 -8 -215 3
-188 12 -221 81 -293 157 -165 480 -111 556 92 18 50 21 78 21 226 0 144 -3
177 -20 222 -43 117 -121 170 -260 178 -47 3 -111 2 -142 -1z m152 -194 c62
-32 70 -54 70 -202 0 -152 -9 -181 -66 -208 -39 -18 -100 -19 -134 -2 -46 23
-60 69 -60 200 0 80 5 129 14 152 27 64 112 93 176 60z"/>
<path d="M886 3454 c-74 -27 -130 -78 -174 -159 l-27 -50 0 -580 0 -580 26
-56 c52 -111 145 -171 272 -177 97 -5 154 14 208 71 l39 39 0 -51 0 -51 70 0
70 0 2 138 c3 147 3 196 0 515 l-2 207 -165 0 -165 0 0 -100 0 -99 56 -3 56
-3 -2 -184 c-1 -195 -7 -224 -52 -255 -32 -23 -117 -20 -146 4 -51 43 -52 51
-52 587 0 464 1 501 18 533 20 37 72 70 110 70 34 0 76 -25 98 -57 15 -22 19
-52 22 -140 l4 -113 110 0 110 0 -4 138 c-3 128 -5 141 -33 196 -36 71 -99
129 -171 156 -66 24 -217 27 -278 4z"/>
<path d="M2419 3455 c-57 -18 -142 -92 -171 -149 -46 -90 -48 -112 -48 -646 0
-533 2 -556 47 -645 30 -58 90 -114 153 -142 46 -21 71 -25 151 -26 81 0 104
4 150 25 102 47 155 111 185 223 20 75 20 1058 0 1134 -26 97 -83 165 -176
209 -46 22 -71 27 -150 29 -62 2 -111 -3 -141 -12z m216 -229 c18 -19 36 -51
39 -71 9 -48 6 -943 -4 -995 -4 -24 -19 -54 -36 -71 -24 -25 -35 -29 -79 -29
-30 0 -60 6 -73 16 -52 36 -52 34 -52 579 0 480 1 508 19 544 23 44 50 59 110
60 37 1 48 -4 76 -33z"/>
<path d="M3020 2664 l0 -806 253 4 252 3 68 33 c72 36 103 69 139 148 18 42
22 72 26 203 7 259 -27 345 -163 406 l-50 22 30 8 c43 12 100 49 122 82 43 62
48 91 48 278 0 167 -2 183 -23 225 -33 68 -74 113 -131 143 -81 44 -163 57
-378 57 l-193 0 0 -806z m435 565 c52 -36 68 -78 72 -194 5 -133 -9 -188 -60
-229 -36 -29 -46 -31 -128 -34 l-89 -4 0 247 0 248 85 -6 c68 -4 93 -10 120
-28z m7 -696 c60 -35 72 -70 73 -218 0 -212 -33 -255 -200 -255 l-85 0 0 251
0 252 89 -5 c63 -4 100 -11 123 -25z"/>
<path d="M3880 2665 l0 -805 115 0 115 0 0 805 0 805 -115 0 -115 0 0 -805z"/>
<path d="M1466 2642 c-4 -3 -6 -180 -6 -394 l0 -388 81 0 82 0 -7 230 c-4 127
-5 230 -2 230 6 0 54 -81 138 -230 31 -55 42 -59 60 -23 24 47 150 264 152
261 1 -2 -1 -95 -4 -208 -7 -284 -14 -260 81 -260 l79 0 0 396 c0 372 -1 395
-17 390 -10 -2 -47 -12 -82 -21 -36 -8 -66 -17 -67 -18 -6 -7 -97 -172 -124
-224 -17 -35 -35 -63 -39 -63 -3 0 -39 58 -78 128 -40 70 -79 136 -86 145 -12
18 -151 60 -161 49z"/>
</g>
</svg>
